<svg xmlns="http://www.w3.org/2000/svg" width="1200" height="320" viewBox="0 0 1200 320" fill="none" role="img" aria-labelledby="title desc">
<title id="title">Just Dashboard</title>
<desc id="desc">Just Dashboard: one authenticated UI for one Linux server. just-dashboard.com</desc>
<style>

.sans { font-family: 'Segoe UI', -apple-system, BlinkMacSystemFont, 'Helvetica Neue', Ubuntu, Arial, sans-serif; }
.mono { font-family: ui-monospace, SFMono-Regular, 'JetBrains Mono', 'Cascadia Code', Menlo, Consolas, 'Liberation Mono', 'DejaVu Sans Mono', monospace; }
.scroll { animation: scroll 14s linear infinite; }
@keyframes scroll { from { transform: translateX(0px); } to { transform: translateX(-448px); } }
@media (prefers-reduced-motion: reduce) { * { animation: none !important; }  }
</style>
<defs><clipPath id="plot"><rect x="664" y="98" width="448" height="142"/></clipPath></defs>
<rect x=".5" y=".5" width="1199" height="319" rx="16" fill="#0d0d0d" stroke="#262626"/>
<g transform="translate(64.00 64.00) scale(0.06173)" fill="#cae9ff" ><path d="M516.476 155.307L516.97 155.34L517.252 155.667C517.049 156.97 517.562 167.496 517.514 170.102C517.242 192.526 517.214 214.952 517.432 237.377C517.663 256.937 517.391 277.333 517.331 296.958L517.34 375.675L517.546 416.672C517.663 427.92 517.948 440.181 517.242 451.385C514.297 455.584 510.753 456.422 507.055 459.324C502.715 462.728 498.32 465.544 493.913 468.737L430.362 514.885L332.242 586.139C325.386 591.075 255.09 642.485 253.047 642.485C249.786 640.343 246.593 636.995 243.757 634.35L227.898 619.634L169.155 564.943L109.434 509.145C101.508 501.621 91.2761 492.787 84.0074 485.006C75.0625 478.055 65.8737 468.145 57.6182 460.27C55.6235 458.365 52.4321 456.634 50.6614 454.78C38.4652 441.991 24.6113 430.914 12.2401 418.292C9.3116 415.302 7.0111 412.382 3.45068 410.138C5.04402 410.078 6.63337 409.841 8.22537 409.727C18.6994 408.987 29.2327 409.42 39.7231 409.401L111.687 409.474L155.226 409.354C162.546 409.338 170.084 409.256 177.403 409.468C179.227 409.578 181.062 410.116 182.464 411.344C187.373 415.634 192.287 420.001 197.279 424.196C211.78 436.331 226.122 448.651 240.301 461.162C246.014 466.114 251.177 471.195 257.16 475.834C261.414 479.131 268.576 486.598 272.883 489.174C274.312 489.044 280.759 483.146 282.502 481.82C292.339 474.325 302.124 467.031 311.613 459.077C311.293 449.927 311.727 439.033 311.821 429.756L311.85 385.56L311.822 328.803C311.693 309.843 311.289 289.811 311.996 270.98L351.566 248.079C355.106 246.071 358.956 244.477 362.379 242.284C366.615 239.567 371.101 237.396 375.457 234.918L431.84 202.998C433.551 202.025 435.44 200.574 437.31 199.49L465.748 183.357L507.903 159.785C510.763 158.159 513.398 157.13 516.476 155.307Z"/><path d="M516.34 2.44244L517.017 2.65999C517.223 4.12633 517.071 12.3071 517.16 14.4348C517.637 26.1424 517.292 37.9156 517.337 49.6116C517.47 69.2503 517.485 88.8899 517.375 108.529C517.33 112.3 517.675 123.919 517.207 126.731C513.793 129.192 504.682 134.116 500.848 136.253L473.16 151.946L367.839 211.857L327.737 234.33C321.808 237.713 318.714 238.686 312.76 242.792C312.477 242.709 312.094 242.667 312.079 242.429C311.704 236.691 311.667 224.28 311.683 218.863L311.796 152.235L311.658 131.426C311.624 126.828 311.435 121.316 311.971 116.843C314.317 115.463 317.309 113.176 319.768 112.189C325.608 109.846 330.1 106.805 335.421 103.738C342.125 99.8762 349.18 96.1752 355.963 92.415L394.958 70.6918C398.947 68.4767 402.737 66.0236 406.666 63.8223C414.816 59.2585 422.899 55.292 430.536 49.8568C432.77 48.2684 437.259 47.0816 439.764 45.5271C446.541 41.3236 453.643 37.6726 460.436 33.4786C462.35 32.1975 465.317 31.2965 467.158 30.0479C471.445 27.1391 476.228 24.9317 480.629 22.4137C488.152 18.1071 495.764 14.1893 503.236 9.81908C507.583 7.27666 512.278 5.41604 516.34 2.44244Z"/></g>
<text class="sans" x="106.2" y="97" font-size="30" font-weight="600" fill="#fafafa">Dashboard</text>
<text class="sans" x="64" y="168" font-size="24" fill="#a1a1aa">One authenticated UI for one Linux server.</text>
<text class="mono" x="64" y="248" font-size="18" fill="#cae9ff">just-dashboard.com →</text>
<rect x="640.5" y="56.5" width="495" height="207" rx="12" fill="#161616" stroke="#262626"/>
<text class="mono" x="664" y="86" font-size="13" fill="#a1a1aa">cpu</text>
<g clip-path="url(#plot)"><g class="scroll">
  <path d="M664.0,159.9 L672.0,158.1 L680.0,161.7 L688.0,163.6 L696.0,160.9 L704.0,157.0 L712.0,157.1 L720.0,162.0 L728.0,167.0 L736.0,165.6 L744.0,156.9 L752.0,147.1 L760.0,145.3 L768.0,156.0 L776.0,174.8 L784.0,192.8 L792.0,202.9 L800.0,205.4 L808.0,205.7 L816.0,208.1 L824.0,211.6 L832.0,210.8 L840.0,202.3 L848.0,189.3 L856.0,179.9 L864.0,180.2 L872.0,188.8 L880.0,197.5 L888.0,197.7 L896.0,187.4 L904.0,172.3 L912.0,160.1 L920.0,154.2 L928.0,151.6 L936.0,147.5 L944.0,141.2 L952.0,137.6 L960.0,143.0 L968.0,158.2 L976.0,176.6 L984.0,188.7 L992.0,189.5 L1000.0,182.8 L1008.0,176.9 L1016.0,178.3 L1024.0,186.1 L1032.0,194.5 L1040.0,198.5 L1048.0,199.0 L1056.0,201.2 L1064.0,208.4 L1072.0,217.3 L1080.0,220.2 L1088.0,211.3 L1096.0,192.4 L1104.0,172.2 L1112.0,159.9 L1120.0,158.1 L1128.0,161.7 L1136.0,163.6 L1144.0,160.9 L1152.0,157.0 L1160.0,157.1 L1168.0,162.0 L1176.0,167.0 L1184.0,165.6 L1192.0,156.9 L1200.0,147.1 L1208.0,145.3 L1216.0,156.0 L1224.0,174.8 L1232.0,192.8 L1240.0,202.9 L1248.0,205.4 L1256.0,205.7 L1264.0,208.1 L1272.0,211.6 L1280.0,210.8 L1288.0,202.3 L1296.0,189.3 L1304.0,179.9 L1312.0,180.2 L1320.0,188.8 L1328.0,197.5 L1336.0,197.7 L1344.0,187.4 L1352.0,172.3 L1360.0,160.1 L1368.0,154.2 L1376.0,151.6 L1384.0,147.5 L1392.0,141.2 L1400.0,137.6 L1408.0,143.0 L1416.0,158.2 L1424.0,176.6 L1432.0,188.7 L1440.0,189.5 L1448.0,182.8 L1456.0,176.9 L1464.0,178.3 L1472.0,186.1 L1480.0,194.5 L1488.0,198.5 L1496.0,199.0 L1504.0,201.2 L1512.0,208.4 L1520.0,217.3 L1528.0,220.2 L1536.0,211.3 L1544.0,192.4 L1552.0,172.2 L1560.0,159.9 L1560,240 L664,240 Z" fill="#cae9ff" fill-opacity=".06"/>
  <path d="M664.0,159.9 L672.0,158.1 L680.0,161.7 L688.0,163.6 L696.0,160.9 L704.0,157.0 L712.0,157.1 L720.0,162.0 L728.0,167.0 L736.0,165.6 L744.0,156.9 L752.0,147.1 L760.0,145.3 L768.0,156.0 L776.0,174.8 L784.0,192.8 L792.0,202.9 L800.0,205.4 L808.0,205.7 L816.0,208.1 L824.0,211.6 L832.0,210.8 L840.0,202.3 L848.0,189.3 L856.0,179.9 L864.0,180.2 L872.0,188.8 L880.0,197.5 L888.0,197.7 L896.0,187.4 L904.0,172.3 L912.0,160.1 L920.0,154.2 L928.0,151.6 L936.0,147.5 L944.0,141.2 L952.0,137.6 L960.0,143.0 L968.0,158.2 L976.0,176.6 L984.0,188.7 L992.0,189.5 L1000.0,182.8 L1008.0,176.9 L1016.0,178.3 L1024.0,186.1 L1032.0,194.5 L1040.0,198.5 L1048.0,199.0 L1056.0,201.2 L1064.0,208.4 L1072.0,217.3 L1080.0,220.2 L1088.0,211.3 L1096.0,192.4 L1104.0,172.2 L1112.0,159.9 L1120.0,158.1 L1128.0,161.7 L1136.0,163.6 L1144.0,160.9 L1152.0,157.0 L1160.0,157.1 L1168.0,162.0 L1176.0,167.0 L1184.0,165.6 L1192.0,156.9 L1200.0,147.1 L1208.0,145.3 L1216.0,156.0 L1224.0,174.8 L1232.0,192.8 L1240.0,202.9 L1248.0,205.4 L1256.0,205.7 L1264.0,208.1 L1272.0,211.6 L1280.0,210.8 L1288.0,202.3 L1296.0,189.3 L1304.0,179.9 L1312.0,180.2 L1320.0,188.8 L1328.0,197.5 L1336.0,197.7 L1344.0,187.4 L1352.0,172.3 L1360.0,160.1 L1368.0,154.2 L1376.0,151.6 L1384.0,147.5 L1392.0,141.2 L1400.0,137.6 L1408.0,143.0 L1416.0,158.2 L1424.0,176.6 L1432.0,188.7 L1440.0,189.5 L1448.0,182.8 L1456.0,176.9 L1464.0,178.3 L1472.0,186.1 L1480.0,194.5 L1488.0,198.5 L1496.0,199.0 L1504.0,201.2 L1512.0,208.4 L1520.0,217.3 L1528.0,220.2 L1536.0,211.3 L1544.0,192.4 L1552.0,172.2 L1560.0,159.9" stroke="#cae9ff" stroke-width="2" stroke-linejoin="round"/>
</g></g>

</svg>
